<?xml version="1.0" encoding="UTF-8"?>
<svg width="40px" height="40px" viewBox="0 0 40 40" version="1.1" xmlns="http://www.w3.org/2000/svg" xmlns:xlink="http://www.w3.org/1999/xlink">
    <title>24-hours</title>
    <g id="Symbols" stroke="none" stroke-width="1" fill="none" fill-rule="evenodd">
        <g id="HEADER-Copy" transform="translate(-565.000000, -25.000000)" fill="#FFFFFF" fill-rule="nonzero">
            <g id="24-hours" transform="translate(565.000000, 25.000000)">
                <path d="M20.078125,7.03125 C12.9713281,7.03125 7.03125,12.8139844 7.03125,19.921875 C7.03125,27.0297656 12.9713281,32.96875 20.078125,32.96875 C27.1849219,32.96875 32.96875,27.0297656 32.96875,19.921875 C32.96875,12.8139844 27.1849219,7.03125 20.078125,7.03125 Z M17.578125,23.4375 C18.2258594,23.4375 18.75,23.9616406 18.75,24.609375 C18.75,25.2571094 18.2258594,25.78125 17.578125,25.78125 L12.890625,25.78125 C12.2428906,25.78125 11.71875,25.2571094 11.71875,24.609375 C11.71875,21.6282031 13.4399219,20.6885938 14.6988281,20.003125 C15.7996875,19.4023438 16.40625,19.0715625 16.40625,17.578125 C16.40625,16.9315625 15.8798437,16.40625 15.234375,16.40625 C14.5889063,16.40625 14.0625,16.9315625 14.0625,17.578125 C14.0625,18.2258594 13.5383594,18.75 12.890625,18.75 C12.2428906,18.75 11.71875,18.2258594 11.71875,17.578125 C11.71875,15.6395313 13.2957813,14.0625 15.234375,14.0625 C17.1729687,14.0625 18.75,15.6395313 18.75,17.578125 C18.75,20.4620312 17.05625,21.3855469 15.8203125,22.0596094 C15.0421094,22.4853125 14.501875,22.7794531 14.2432812,23.4375 L17.578125,23.4375 Z M29.453125,21.09375 L28.28125,21.09375 L28.28125,24.609375 C28.28125,25.2571094 27.7571094,25.78125 27.109375,25.78125 C26.4616406,25.78125 25.9375,25.2571094 25.9375,24.609375 L25.9375,21.09375 L22.421875,21.09375 C21.7741406,21.09375 21.25,20.5696094 21.25,19.921875 L21.25,15.234375 C21.25,14.5866406 21.7741406,14.0625 22.421875,14.0625 C23.0696094,14.0625 23.59375,14.5866406 23.59375,15.234375 L23.59375,18.75 L25.9375,18.75 L25.9375,15.234375 C25.9375,14.5866406 26.4616406,14.0625 27.109375,14.0625 C27.7571094,14.0625 28.28125,14.5866406 28.28125,15.234375 L28.28125,18.75 L29.453125,18.75 C30.1008594,18.75 30.625,19.2741406 30.625,19.921875 C30.625,20.5696094 30.1008594,21.09375 29.453125,21.09375 Z" id="Shape"></path>
                <path d="M36.484375,4.6875 C35.8366406,4.6875 35.3125,5.21164063 35.3125,5.859375 L35.3125,7.14570312 C31.5603906,2.68890625 25.9985938,0 20.078125,0 C9.0940625,0 0,8.93671875 0,19.921875 C0,20.5696094 0.524140625,21.09375 1.171875,21.09375 C1.81960938,21.09375 2.34375,20.5696094 2.34375,19.921875 C2.34375,10.22875 10.385,2.34375 20.078125,2.34375 C25.6225,2.34375 30.8264063,4.99804688 34.1249219,9.375 L31.796875,9.375 C31.1491406,9.375 30.625,9.89914062 30.625,10.546875 C30.625,11.1946094 31.1491406,11.71875 31.796875,11.71875 L36.484375,11.71875 C37.1321094,11.71875 37.65625,11.1946094 37.65625,10.546875 L37.65625,5.859375 C37.65625,5.21164063 37.1321094,4.6875 36.484375,4.6875 Z" id="Path"></path>
                <path d="M38.828125,18.75 C38.1803906,18.75 37.671875,19.2741406 37.671875,19.921875 C37.671875,29.615 29.77125,37.65625 20.078125,37.65625 C14.53375,37.65625 9.17359375,35.0019531 5.87507812,30.625 L8.203125,30.625 C8.85085937,30.625 9.375,30.1008594 9.375,29.453125 C9.375,28.8053906 8.85085937,28.28125 8.203125,28.28125 L3.515625,28.28125 C2.86789063,28.28125 2.34375,28.8053906 2.34375,29.453125 L2.34375,34.140625 C2.34375,34.7883594 2.86789063,35.3125 3.515625,35.3125 C4.16335937,35.3125 4.6875,34.7883594 4.6875,34.140625 L4.6875,32.8542969 C8.43960937,37.3110937 14.1576563,40 20.078125,40 C31.0621875,40 40,30.9070313 40,19.921875 C40,19.2741406 39.4758594,18.75 38.828125,18.75 Z" id="Path"></path>
            </g>
        </g>
    </g>
</svg>