<?xml version="1.0" encoding="UTF-8"?>
<svg width="70px" height="70px" viewBox="0 0 70 70" version="1.1" xmlns="http://www.w3.org/2000/svg" xmlns:xlink="http://www.w3.org/1999/xlink">
    <title>Group</title>
    <g id="Page-1" stroke="none" stroke-width="1" fill="none" fill-rule="evenodd">
        <g id="1-Home-Novo-Full" transform="translate(-1235.000000, -4723.000000)">
            <g id="Group" transform="translate(1235.000000, 4723.000000)">
                <circle id="Oval" fill="#00C3DC" cx="35" cy="35" r="35"></circle>
                <g id="whatsapp" transform="translate(15.000000, 15.000000)" fill="#FFFFFF" fill-rule="nonzero">
                    <path d="M28.9896759,23.8160354 L28.9748539,23.9377281 C25.3533261,22.1593914 24.9745396,21.9224962 24.5068207,22.613711 C24.1823819,23.0923692 23.2370627,24.1778685 22.9521494,24.4991373 C22.6639423,24.8155385 22.3773821,24.839877 21.8882536,24.6208301 C21.3941843,24.3774446 19.8082219,23.866335 17.9307587,22.2113137 C16.4683136,20.9213705 15.4867627,19.3393648 15.1969087,18.8525938 C14.7143677,18.0315734 15.7239159,17.9147484 16.6428848,16.2013145 C16.8075745,15.8605748 16.7235827,15.5928507 16.6017123,15.3510878 C16.478195,15.1077023 15.4949971,12.7225245 15.0832727,11.7716985 C14.6880173,10.8241176 14.2812336,10.9441878 13.9765576,10.9441878 C13.0279446,10.8630593 12.3346007,10.8760398 11.7236017,11.5023518 C9.06550898,14.380791 9.73579629,17.350094 12.0101619,20.5076152 C16.4798419,26.2709837 18.8612558,27.3321445 23.215653,28.805438 C24.3915379,29.1737614 25.4636682,29.1218392 26.3118205,29.001769 C27.2571397,28.8541151 29.2218885,27.831896 29.631966,26.6879842 C30.0519249,25.5440724 30.0519249,24.5948689 29.9284076,24.375822 C29.8065371,24.1567751 29.4837452,24.0350823 28.9896759,23.8160354 L28.9896759,23.8160354 Z" id="Path"></path>
                    <path d="M34.2,5.74895019 C21.385,-6.63916003 0.176666667,2.34567815 0.168333333,19.8220301 C0.168333333,23.3153005 1.08333333,26.7219058 2.82666667,29.730185 L0,40 L10.5583333,37.2467163 C23.7333333,44.3632548 39.9933333,34.9134249 40,19.8320299 C40,14.5387919 37.9333333,9.55721494 34.175,5.81394902 L34.2,5.74895019 Z M36.67,19.7770309 C36.66,32.4984684 22.695,40.4433253 11.65,33.950109 L11.05,33.5934487 L4.8,35.2184194 L6.475,29.1435289 L6.07666667,28.5185401 C-0.796666667,17.5770705 7.1,3.27732804 20.12,3.27732804 C24.5433333,3.27732804 28.695,5.00229697 31.8216667,8.12724069 C34.9466667,11.2255182 36.67,15.3771101 36.67,19.7770309 Z" id="Shape"></path>
                </g>
            </g>
        </g>
    </g>
</svg>